<?xml version="1.0" encoding="UTF-8"?><svg id="Layer_1" xmlns="http://www.w3.org/2000/svg" viewBox="0 0 295.96 88.05"><defs><style>.cls-1{fill:currentColor;}</style></defs><g><path class="cls-1" d="M244.59,9.29c-3.32,0-6.04,2.73-6.04,6.12s2.73,5.97,6.04,5.97,6.04-2.73,6.04-5.97-2.65-6.12-6.04-6.12"/><path class="cls-1" d="M229.88,26.91h-5.96c-1.31,0-2.07,.87-2.5,1.92-.16,.38-.58,.55-.95,.37-2.82-1.35-5.93-2.17-9.07-2.17-11.91,0-21.42,10.29-20.12,22.47,.97,9.08,8.1,16.49,17.14,17.8,4.04,.58,7.89-.05,11.25-1.56h0c.83-.39,1.25-.1,1.3,.49-.14,7.26-3.85,10.48-10.41,10.48-3.6,0-6.38-1.61-7.92-4.11-.29-.47-.81-.74-1.36-.74h-7.83c-.83,0-1.47,.78-1.25,1.59,1.82,6.81,8.71,12.57,18.68,12.57,14.71,0,20.52-9.78,20.52-20.52V28.44c0-.84-.68-1.52-1.52-1.52m-18.48,30.4c-5.54,0-10.04-4.49-10.04-10.04s4.49-10.03,10.04-10.03,10.04,4.49,10.04,10.03-4.49,10.04-10.04,10.04"/><path class="cls-1" d="M123.73,27.25c-4.28-.62-8.34,.12-11.84,1.83-.34,.17-.73-.07-.73-.44V10.83c0-.85-.69-1.54-1.54-1.54h-7.34c-.85,0-1.54,.69-1.54,1.54v54.52c0,.84,.69,1.53,1.53,1.53h6.49c.92,0,1.7-.56,2.05-1.35,.12-.28,.43-.4,.7-.26,2.77,1.43,5.91,2.25,9.24,2.25,11.91,0,21.42-10.29,20.12-22.47-.97-9.08-8.1-16.49-17.14-17.8m-2.98,30.06c-5.54,0-10.04-4.49-10.04-10.04s4.49-10.03,10.04-10.03,10.04,4.49,10.04,10.03-4.49,10.04-10.04,10.04"/><path class="cls-1" d="M291.82,34.26c-2.71-7.04-10.44-9.55-17.44-8.19-1.92,.37-3.78,1.04-5.48,2-.13,.07-.41,.29-.67,.47-.27,.13-.71,0-.83-.27-.34-.79-1.13-1.35-2.05-1.35h-.03s-.06-.01-.09-.01h-6.36c-.85,0-1.54,.69-1.54,1.54v36.94c0,.83,.67,1.5,1.5,1.5h7.59c.83,0,1.5-.67,1.5-1.5v-21.85c0-4.53,2.7-8.11,7.32-8.11,5.09,0,7.24,3.42,7.24,7.79v22.12c0,.86,.69,1.55,1.55,1.55h7.48c.86,0,1.55-.69,1.55-1.55v-23.95c0-2.42-.35-4.86-1.22-7.13"/><path class="cls-1" d="M248.34,26.91h-7.51c-.85,0-1.53,.69-1.53,1.53v36.9c0,.85,.69,1.53,1.53,1.53h7.51c.85,0,1.53-.69,1.53-1.53V28.44c0-.85-.69-1.53-1.53-1.53"/><path class="cls-1" d="M166.18,26.93c-11.94,0-20.85,10.41-20.12,21.97,.62,9.76,8.58,17.71,18.4,18.53h0c14.11,1.02,19.47-7.53,20.98-11.15,.32-.75-.25-1.58-1.07-1.58h-8.33c-.49,0-.94,.2-1.31,.52-4.29,3.81-10.16,2.85-10.92,2.7h-.07c-3.56-.83-6.43-3.4-7.65-6.74-.14-.38,.13-.78,.53-.78h27.9c.99,0,1.8-.79,1.8-1.77v-1.98c-.51-10.53-8.19-19.73-20.14-19.73m8.72,15.44h-17.26c-.4,0-.71-.34-.65-.71,.52-3.19,4.48-6.22,9.28-6.22s8.76,3.03,9.28,6.22c.06,.37-.25,.71-.65,.71"/></g><g><path class="cls-1" d="M35.04,17.11V3.18c0-.69-.61-1.23-1.3-1.14-6.17,.88-11.84,3.29-16.6,6.85-.55,.41-.6,1.23-.11,1.72l9.88,9.83c.38,.38,.96,.43,1.41,.15,1.78-1.08,3.74-1.89,5.82-2.39,.52-.12,.89-.57,.89-1.1Z"/><path class="cls-1" d="M21.42,25.91l-9.88-9.83c-.49-.49-1.31-.44-1.73,.11-3.57,4.74-6,10.38-6.88,16.52-.1,.68,.45,1.29,1.14,1.29h13.99c.53,0,.98-.37,1.11-.89,.5-2.07,1.32-4.02,2.4-5.79,.28-.45,.23-1.03-.15-1.41Z"/><path class="cls-1" d="M59.76,33.99h13.99c.69,0,1.24-.61,1.14-1.29-.88-6.14-3.31-11.78-6.88-16.52-.42-.55-1.24-.59-1.73-.11l-9.88,9.83c-.38,.38-.43,.95-.15,1.41,1.09,1.77,1.9,3.72,2.4,5.79,.12,.52,.57,.89,1.11,.89Z"/><path class="cls-1" d="M50.92,20.45l9.88-9.83c.49-.49,.45-1.31-.11-1.72-4.76-3.55-10.43-5.97-16.6-6.85-.68-.1-1.3,.45-1.3,1.14v13.92c0,.53,.37,.98,.89,1.1,2.08,.5,4.04,1.31,5.82,2.39,.46,.28,1.03,.22,1.41-.15Z"/><path class="cls-1" d="M58.66,42.6c-.5,2.07-1.32,4.02-2.4,5.79-.28,.45-.23,1.03,.15,1.41l9.88,9.83c.49,.49,1.31,.44,1.73-.11,3.57-4.74,6-10.38,6.88-16.52,.1-.68-.45-1.29-1.14-1.29h-13.99c-.53,0-.98,.37-1.11,.89Z"/><path class="cls-1" d="M17.03,65.09c-.49,.49-.45,1.31,.11,1.72,6.07,4.53,13.61,7.22,21.78,7.22s15.71-2.69,21.78-7.22c.55-.41,.6-1.23,.11-1.72l-21.08-20.97c-.45-.44-1.17-.44-1.62,0l-21.08,20.97Z"/><path class="cls-1" d="M18.08,41.71H4.07c-.69,0-1.24,.61-1.14,1.29,.88,6.14,3.31,11.78,6.88,16.52,.42,.55,1.24,.59,1.73,.11l9.9-9.85c.38-.38,.43-.95,.15-1.41-1.09-1.77-1.91-3.7-2.41-5.77-.13-.52-.57-.89-1.11-.89Z"/></g></svg>
