<?xml version="1.0" encoding="utf-8"?>
<!-- Generator: Adobe Illustrator 21.0.0, SVG Export Plug-In . SVG Version: 6.00 Build 0)  -->
<svg version="1.1" id="Layer_1" xmlns="http://www.w3.org/2000/svg" xmlns:xlink="http://www.w3.org/1999/xlink" x="0px" y="0px"
	 viewBox="0 0 125 144" style="enable-background:new 0 0 125 144;" xml:space="preserve">
<style type="text/css">
	.st0{clip-path:url(#SVGID_2_);}
	.st1{clip-path:url(#SVGID_4_);fill:#363636;}
	.st2{clip-path:url(#SVGID_6_);}
	.st3{clip-path:url(#SVGID_8_);fill:#363636;}
	.st4{clip-path:url(#SVGID_10_);}
	.st5{clip-path:url(#SVGID_12_);fill:#FF00B6;}
	.st6{clip-path:url(#SVGID_14_);}
	.st7{clip-path:url(#SVGID_16_);fill:#FFFFFF;}
	.st8{clip-path:url(#SVGID_18_);}
	.st9{clip-path:url(#SVGID_20_);fill:#363636;}
</style>
<g>
	<defs>
		<polygon id="SVGID_1_" points="3.4,106.8 3.4,37.7 63.4,3.1 123.4,37.7 123.4,106.8 63.4,141.3 		"/>
	</defs>
	<clipPath id="SVGID_2_">
		<use xlink:href="#SVGID_1_"  style="overflow:visible;"/>
	</clipPath>
	<g class="st0">
		<defs>
			<rect id="SVGID_3_" x="-178" y="-334" width="632" height="562"/>
		</defs>
		<clipPath id="SVGID_4_">
			<use xlink:href="#SVGID_3_"  style="overflow:visible;"/>
		</clipPath>
		<rect x="-1.6" y="-1.9" class="st1" width="130" height="148.2"/>
	</g>
</g>
<g>
	<defs>
		<path id="SVGID_5_" d="M62.9,0.2l-62.5,36v72l62.5,36l62.5-36v-72L62.9,0.2z M62.9,6l57.5,33.1v66.2l-57.5,33.1L5.4,105.3V39.1
			L62.9,6z"/>
	</defs>
	<clipPath id="SVGID_6_">
		<use xlink:href="#SVGID_5_"  style="overflow:visible;"/>
	</clipPath>
	<g class="st2">
		<defs>
			<rect id="SVGID_7_" x="-178" y="-334" width="632" height="562"/>
		</defs>
		<clipPath id="SVGID_8_">
			<use xlink:href="#SVGID_7_"  style="overflow:visible;"/>
		</clipPath>
		<rect x="-4.6" y="-4.8" class="st3" width="135" height="154"/>
	</g>
</g>
<g>
	<defs>
		<polygon id="SVGID_9_" points="54.2,89 45,99.1 66.6,104.9 56.4,126.7 81.6,98.4 70,95.5 82.9,89 		"/>
	</defs>
	<clipPath id="SVGID_10_">
		<use xlink:href="#SVGID_9_"  style="overflow:visible;"/>
	</clipPath>
	<g class="st4">
		<defs>
			<rect id="SVGID_11_" x="-178" y="-334" width="632" height="562"/>
		</defs>
		<clipPath id="SVGID_12_">
			<use xlink:href="#SVGID_11_"  style="overflow:visible;"/>
		</clipPath>
		<rect x="40" y="84" class="st5" width="47.9" height="47.7"/>
	</g>
</g>
<g>
	<defs>
		<path id="SVGID_13_" d="M27.6,66.6c0.3-1.9,0.5-3.7,0.8-5.5c1.6-9.5,10.2-15.3,19.9-13.4c1,0.2,2,0.3,3,0.6
			c0.8,0.2,1.1-0.1,1.5-0.7c1.6-3.2,3.3-6.4,6.2-8.7c6.5-5.5,14-7,22-4c7.9,3,12.4,8.8,13.5,17c0.1,0.7,0.2,1.3,0.3,2
			c0.3,2.4,0.3,2.4,2.8,2.7c3.6,0.4,7,1.4,9.9,3.7c5.4,4.3,7.6,11.2,5.4,17.5c-2.2,6.5-8.1,10.9-15.1,11.3c-0.5,0-1,0-1.6,0
			c-24.8,0-49.6,0-74.4,0c-5,0-8.9-1.9-11.3-6.3c-2.2-4.1-1.9-8.3,0.9-12.1c3-4,7.1-5.5,12.1-4.6C24.7,66.2,26.1,66.4,27.6,66.6
			l0-2.5"/>
	</defs>
	<clipPath id="SVGID_14_">
		<use xlink:href="#SVGID_13_"  style="overflow:visible;"/>
	</clipPath>
	<g class="st6">
		<defs>
			<rect id="SVGID_15_" x="-178" y="-334" width="632" height="562"/>
		</defs>
		<clipPath id="SVGID_16_">
			<use xlink:href="#SVGID_15_"  style="overflow:visible;"/>
		</clipPath>
		<rect x="4" y="28.3" class="st7" width="114.7" height="65.7"/>
	</g>
</g>
<g>
	<defs>
		<path id="SVGID_17_" d="M80.4,78c3.1,0,5-1.1,6.6-2.9l-3.4-3c-0.7,0.7-1.6,1.5-3.2,1.5c-2.3,0-3.5-1.6-3.5-3.9
			c0-2.2,1.3-3.8,3.5-3.8c1.3,0,2.5,0.7,3.1,1.7l3.6-2.9c-1.6-2-3.5-3.1-6.6-3.1c-4.9,0-8.6,3.4-8.6,8.2C71.7,74.5,75.5,78,80.4,78z
			 M59.5,77.6h5v-7c0-3.4,1.2-4.4,3.5-4.4c0.7,0,1.3,0.2,1.9,0.5l1.6-4.6c-0.6-0.3-1.4-0.6-2.4-0.6c-1.6,0-3.5,0.6-4.6,3.2l0.1-2.9
			h-5V77.6z M51.9,71.2h-3.4c-1.3,0-1.8,0.6-1.8,1.4c0,0.9,0.7,1.4,2.1,1.4c2,0,3.1-0.9,3.1-2.2V71.2z M51.9,68.3
			c-0.1-1.8-1-2.6-2.6-2.6c-1.9,0-2.9,0.8-3.6,1.4l-2.8-3c1.5-1.4,3.1-2.6,6.8-2.6c4,0,7.1,2.2,7.1,7.1v9h-5l0.1-2.2
			c-1.2,1.8-2.6,2.5-4.7,2.5c-2.9,0-5.6-1.3-5.6-5c0-3.4,2.6-4.7,6.4-4.7H51.9z M37.1,77.8c1.7,0,3.1-1.3,3.1-3.1
			c0-1.8-1.4-3.1-3.1-3.1c-1.7,0-3.1,1.3-3.1,3.1C34,76.5,35.4,77.8,37.1,77.8z"/>
	</defs>
	<clipPath id="SVGID_18_">
		<use xlink:href="#SVGID_17_"  style="overflow:visible;"/>
	</clipPath>
	<g class="st8">
		<defs>
			<rect id="SVGID_19_" x="-178" y="-334" width="632" height="562"/>
		</defs>
		<clipPath id="SVGID_20_">
			<use xlink:href="#SVGID_19_"  style="overflow:visible;"/>
		</clipPath>
		<rect x="29" y="56.5" class="st9" width="63" height="26.4"/>
	</g>
</g>
</svg>
