<?xml version="1.0" encoding="UTF-8"?>
<svg width="810px" height="197px" viewBox="0 0 810 197" version="1.1" xmlns="http://www.w3.org/2000/svg" xmlns:xlink="http://www.w3.org/1999/xlink">
    <!-- Generator: Sketch 42 (36781) - http://www.bohemiancoding.com/sketch -->
    <title>green</title>
    <desc>Created with Sketch.</desc>
    <defs></defs>
    <g id="Page-1" stroke="none" stroke-width="1" fill="none" fill-rule="evenodd">
        <g id="Main" transform="translate(-205.000000, -327.000000)">
            <g id="green" transform="translate(205.000000, 327.000000)">
                <path d="M241.625,138.894 C248.33,138.894 254.141,133.679 254.141,126.229 C254.141,118.928 248.33,113.713 241.625,113.713 C234.771,113.713 228.96,118.928 228.96,126.229 C228.96,133.679 234.771,138.894 241.625,138.894 Z M306.397,100.303 C306.099,93.002 302.523,89.724 295.818,89.724 C288.219,89.724 284.196,93.002 281.365,95.535 L270.19,83.615 C276.15,77.804 282.855,73.185 297.755,73.185 C313.996,73.185 326.363,81.976 326.363,101.942 L326.363,138 L306.397,138 L306.844,129.209 C302.076,136.51 296.563,139.341 288.07,139.341 C276.448,139.341 265.72,134.126 265.72,119.375 C265.72,105.816 276.001,100.303 291.646,100.303 L306.397,100.303 Z M306.397,112.223 L292.689,112.223 C287.623,112.223 285.388,114.458 285.388,118.034 C285.388,121.61 288.368,123.696 294.03,123.696 C302.225,123.696 306.397,120.12 306.397,114.756 L306.397,112.223 Z M342.71,138 L362.825,138 L362.825,109.839 C362.825,96.28 367.742,92.108 376.831,92.108 C379.662,92.108 382.046,92.853 384.579,94.045 L390.986,75.718 C388.453,74.377 385.324,73.185 381.152,73.185 C374.596,73.185 367.146,75.569 362.527,85.999 L362.825,74.526 L342.71,74.526 L342.71,138 Z M432.365,139.341 C445.03,139.341 452.48,134.871 458.738,127.868 L445.179,115.948 C442.199,118.928 438.772,121.908 432.365,121.908 C423.276,121.908 418.21,115.352 418.21,106.114 C418.21,97.174 423.276,90.767 432.365,90.767 C437.431,90.767 442.348,93.598 444.732,97.472 L459.036,85.85 C452.629,77.804 445.03,73.185 432.365,73.185 C412.548,73.185 397.648,86.893 397.648,106.114 C397.648,125.633 412.548,139.341 432.365,139.341 Z M476.575,138 L482.386,138 L482.386,104.028 C482.386,89.873 491.624,81.231 504.736,81.231 C516.507,81.231 522.318,88.532 522.318,101.048 L522.318,138 L528.129,138 L528.129,100.005 C528.129,84.956 519.04,75.867 505.481,75.867 C494.753,75.867 486.409,81.529 482.386,90.171 L482.386,30.422 L476.575,30.422 L476.575,138 Z M556.396,55.901 C558.929,55.901 561.313,53.964 561.313,50.984 C561.313,48.153 558.929,46.067 556.396,46.067 C553.863,46.067 551.479,48.153 551.479,50.984 C551.479,53.964 553.863,55.901 556.396,55.901 Z M553.565,138 L559.376,138 L559.376,77.208 L553.565,77.208 L553.565,138 Z M601.798,139.192 C608.652,139.192 612.228,136.51 615.208,133.083 L611.483,129.507 C609.248,131.891 607.162,133.977 601.798,133.977 C596.732,133.977 593.603,130.699 593.603,121.759 L593.603,82.125 L611.185,82.125 L611.185,77.208 L593.603,77.208 L593.603,55.901 L587.792,55.901 L587.792,77.208 L578.256,77.208 L578.256,82.125 L587.792,82.125 L587.792,121.908 C587.792,134.275 594.05,139.192 601.798,139.192 Z M634.237,108.796 C634.684,123.547 644.369,133.977 660.014,133.977 C670.146,133.977 676.851,129.954 681.321,124.441 L685.195,127.868 C679.831,134.573 671.338,139.192 660.014,139.192 C640.793,139.192 628.277,125.037 628.277,107.604 C628.277,90.171 641.538,75.867 658.822,75.867 C677.298,75.867 688.92,90.32 688.622,108.796 L634.237,108.796 Z M634.386,104.028 L682.662,104.028 C681.768,91.512 674.02,80.933 658.822,80.933 C644.965,80.933 635.876,90.767 634.386,104.028 Z M735.514,139.192 C746.54,139.192 754.139,135.318 759.801,128.315 L755.629,124.888 C751.308,130.401 745.05,133.977 735.514,133.977 C720.614,133.977 710.78,122.504 710.78,107.604 C710.78,92.555 720.614,81.082 735.514,81.082 C744.454,81.082 750.116,84.211 754.437,89.575 L758.609,86.148 C753.394,79.741 745.795,75.867 735.514,75.867 C718.081,75.867 704.671,90.171 704.671,107.604 C704.671,125.037 718.081,139.192 735.514,139.192 Z M795.965,139.192 C802.819,139.192 806.395,136.51 809.375,133.083 L805.65,129.507 C803.415,131.891 801.329,133.977 795.965,133.977 C790.899,133.977 787.77,130.699 787.77,121.759 L787.77,82.125 L805.352,82.125 L805.352,77.208 L787.77,77.208 L787.77,55.901 L781.959,55.901 L781.959,77.208 L772.423,77.208 L772.423,82.125 L781.959,82.125 L781.959,121.908 C781.959,134.275 788.217,139.192 795.965,139.192 Z" id=".architect" fill="#FFFFFF"></path>
                <g id="Group">
                    <polygon id="Path-3" fill="#00FF63" points="89.1535927 116.995633 71.2416667 138.273457 113.516218 150.44491 93.610209 196.565808 142.944762 136.847357 120.177403 130.617988 144.83281 117.648746"></polygon>
                    <path d="M36.3816009,70.3727368 C36.9288391,66.4245695 37.4062171,62.586413 38.0000288,58.7727034 C41.0971643,38.7629515 58.0731923,26.4539593 77.0868095,30.3899031 C79.0196083,30.7810528 80.9640505,31.1110854 82.8735626,31.612246 C84.3755568,32.0156191 85.1207323,31.4655648 85.7844041,30.0354237 C88.928113,23.2636445 92.2930459,16.6140996 97.8818617,11.5780471 C110.712851,-0.0219862386 125.325276,-3.10229015 141.043821,3.22944566 C156.482924,9.47561748 165.273666,21.8579503 167.567409,39.1541012 C167.765346,40.547572 167.91671,41.9410428 168.079717,43.3345136 C168.696816,48.3950129 168.696816,48.4805769 173.62196,49.055078 C180.724413,49.8984946 187.337845,51.9764774 192.984878,56.7925081 C203.650201,65.8745152 207.806883,80.3837245 203.626915,93.8294955 C199.365442,107.544182 187.83851,116.797317 174.006191,117.604063 C172.981574,117.665181 171.956958,117.689627 170.932342,117.689627 C122.298001,117.689627 73.6753032,117.677404 25.0409621,117.701851 C15.2372477,117.701851 7.51769581,113.680343 2.90692276,104.451655 C-1.45933961,95.7363503 -0.912101394,86.9232586 4.5835675,78.9169131 C10.3703206,70.5071945 18.4624601,67.3902203 28.2312445,69.1259471 C30.8510019,69.6026608 33.5056894,69.9326934 36.3816009,70.3727368 L36.400107,65.0407443" id="Fill-9" fill="#FFFFFF"></path>
                </g>
            </g>
        </g>
    </g>
</svg>