<?xml version="1.0" encoding="utf-8"?>
<!-- Generator: Adobe Illustrator 21.0.0, SVG Export Plug-In . SVG Version: 6.00 Build 0)  -->
<svg version="1.1" id="Layer_1" xmlns="http://www.w3.org/2000/svg" xmlns:xlink="http://www.w3.org/1999/xlink" x="0px" y="0px"
	 viewBox="0 0 821 197" style="enable-background:new 0 0 821 197;" xml:space="preserve">
<style type="text/css">
	.st0{fill:#333333;}
</style>
<title>black-text-2</title>
<desc>Created with Sketch.</desc>
<g id="Page-1">
	<g id="Main" transform="translate(-205.000000, -327.000000)">
		<g id="black-text-2" transform="translate(205.000000, 327.000000)">
			<path id="_x2E_architect" class="st0" d="M241.6,138.9c6.7,0,12.5-5.2,12.5-12.7c0-7.3-5.8-12.5-12.5-12.5
				c-6.9,0-12.7,5.2-12.7,12.5C229,133.7,234.8,138.9,241.6,138.9z M306.4,100.3c-0.3-7.3-3.9-10.6-10.6-10.6
				c-7.6,0-11.6,3.3-14.5,5.8l-11.2-11.9c6-5.8,12.7-10.4,27.6-10.4c16.2,0,28.6,8.8,28.6,28.8V138h-20l0.4-8.8
				c-4.8,7.3-10.3,10.1-18.8,10.1c-11.6,0-22.4-5.2-22.4-20c0-13.6,10.3-19.1,25.9-19.1H306.4z M306.4,112.2h-13.7
				c-5.1,0-7.3,2.2-7.3,5.8c0,3.6,3,5.7,8.6,5.7c8.2,0,12.4-3.6,12.4-8.9V112.2z M342.7,138h20.1v-28.2c0-13.6,4.9-17.7,14-17.7
				c2.8,0,5.2,0.7,7.7,1.9l6.4-18.3c-2.5-1.3-5.7-2.5-9.8-2.5c-6.6,0-14,2.4-18.6,12.8l0.3-11.5h-20.1V138z M432.4,139.3
				c12.7,0,20.1-4.5,26.4-11.5l-13.6-11.9c-3,3-6.4,6-12.8,6c-9.1,0-14.2-6.6-14.2-15.8c0-8.9,5.1-15.3,14.2-15.3
				c5.1,0,10,2.8,12.4,6.7L459,85.8c-6.4-8-14-12.7-26.7-12.7c-19.8,0-34.7,13.7-34.7,32.9C397.6,125.6,412.5,139.3,432.4,139.3z
				 M475.1,138h10.4v-34c0-12.2,7.7-19.5,19.2-19.5c10.3,0,15.3,6.3,15.3,17.1V138h10.4v-37.5c0-16.1-9.4-25.5-23.1-25.5
				c-10,0-18,5.2-21.9,13.4v-58h-10.4V138z M558.5,58.4c3.9,0,7.5-3,7.5-7.3s-3.6-7.5-7.5-7.5s-7.5,3.1-7.5,7.5
				S554.6,58.4,558.5,58.4z M553.3,138h10.4V76.3h-10.4V138z M607.2,139.3c7.6,0,11.8-2.8,14.9-6l-5.1-7c-1.9,1.9-4,3.9-8.8,3.9
				c-4.5,0-7.3-2.5-7.3-10.7V85.1h17.3v-8.8h-17.3V55.2h-10.3v21.2h-9.5v8.8h9.5v34.3C590.6,134,597.8,139.3,607.2,139.3z
				 M643.8,110.6c1.3,11.8,9.4,19.8,22.9,19.8c9.2,0,15.5-3.7,19.5-8.2l6.4,6.3c-5.7,6.4-13.9,10.7-25.9,10.7
				c-20.3,0-33.4-14-33.4-32S647.2,75,665.2,75c19.8,0,31.7,15.2,31,35.6H643.8z M643.9,102.7h41.9c-0.9-10.6-7.6-18.9-20.6-18.9
				C653.5,83.8,645.6,91.4,643.9,102.7z M743.3,139.2c11.5,0,19.1-4,24.9-11l-7.2-6.1c-3.9,4.6-9.2,8-17.7,8
				c-13.1,0-21.3-9.8-21.3-22.9s8.2-22.9,21.3-22.9c7.7,0,13.1,3,16.8,7.9l7.5-6.1c-5.7-6.9-13.3-11-24.3-11
				c-18.2,0-32,14.2-32,32.2S725.1,139.2,743.3,139.2z M805.8,139.3c7.6,0,11.8-2.8,14.9-6l-5.1-7c-1.9,1.9-4,3.9-8.8,3.9
				c-4.5,0-7.3-2.5-7.3-10.7V85.1h17.3v-8.8h-17.3V55.2h-10.3v21.2h-9.5v8.8h9.5v34.3C789.3,134,796.4,139.3,805.8,139.3z"/>
			<g id="Group">
				<polygon id="Path-3" class="st0" points="89.2,117 71.2,138.3 113.5,150.4 93.6,196.6 142.9,136.8 120.2,130.6 144.8,117.6 				
					"/>
				<path id="Fill-9" class="st0" d="M36.4,70.4c0.5-3.9,1-7.8,1.6-11.6c3.1-20,20.1-32.3,39.1-28.4c1.9,0.4,3.9,0.7,5.8,1.2
					c1.5,0.4,2.2-0.1,2.9-1.6c3.1-6.8,6.5-13.4,12.1-18.5C110.7,0,125.3-3.1,141,3.2c15.4,6.2,24.2,18.6,26.5,35.9
					c0.2,1.4,0.3,2.8,0.5,4.2c0.6,5.1,0.6,5.1,5.5,5.7c7.1,0.8,13.7,2.9,19.4,7.7c10.7,9.1,14.8,23.6,10.6,37
					c-4.3,13.7-15.8,23-29.6,23.8c-1,0.1-2,0.1-3.1,0.1c-48.6,0-97.3,0-145.9,0c-9.8,0-17.5-4-22.1-13.3c-4.4-8.7-3.8-17.5,1.7-25.5
					c5.8-8.4,13.9-11.5,23.6-9.8C30.9,69.6,33.5,69.9,36.4,70.4l0-5.3"/>
			</g>
		</g>
	</g>
</g>
</svg>
