<?xml version="1.0" encoding="UTF-8"?>
<svg width="428px" height="391px" viewBox="0 0 428 391" version="1.1" xmlns="http://www.w3.org/2000/svg" xmlns:xlink="http://www.w3.org/1999/xlink">
    <!-- Generator: Sketch 42 (36781) - http://www.bohemiancoding.com/sketch -->
    <title>black-text</title>
    <desc>Created with Sketch.</desc>
    <defs></defs>
    <g id="Page-1" stroke="none" stroke-width="1" fill="none" fill-rule="evenodd">
        <g id="Main" transform="translate(-681.000000, -219.000000)">
            <g id="black-text" transform="translate(681.000000, 219.000000)">
                <polygon id="Path-3" fill="#363636" points="188.773438 227.6875 147 275.462472 235.003294 299.586728 193.564786 391 296.264947 272.635891 248.869941 260.289057 296.264947 227.6875"></polygon>
                <path d="M75.7358898,139.481286 C76.8750802,131.655877 77.8688422,124.048513 79.104985,116.489604 C85.5523183,76.8295589 120.891461,52.4326952 160.472271,60.233877 C164.495795,61.0091498 168.543556,61.6632861 172.518604,62.6566043 C175.645318,63.4561043 177.196556,62.365877 178.578128,59.5312861 C185.122414,46.109377 192.127223,32.9297407 203.761509,22.9481043 C230.47189,-0.0435775127 260.890699,-6.14885024 293.612128,6.40087703 C325.751842,18.7810134 344.051604,43.3232407 348.826509,77.6048316 C349.238556,80.3667407 349.553652,83.1286498 349.892985,85.8905589 C351.177604,95.9206498 351.177604,96.0902407 361.430318,97.2289225 C376.215556,98.9006043 389.982795,103.019241 401.738271,112.564786 C423.940366,130.56565 432.593366,159.323422 423.89189,185.973422 C415.020747,213.156422 391.025033,231.496468 362.230175,233.095468 C360.097223,233.216604 357.964271,233.265059 355.831318,233.265059 C254.588795,233.265059 153.370509,233.240832 52.127985,233.289286 C31.7195088,233.289286 15.6496517,225.318513 6.05136596,207.026922 C-3.03791975,189.752877 -1.89872927,172.285013 9.54165168,156.41615 C21.587985,139.747786 38.4334612,133.569832 58.7692231,137.010104 C64.2227945,137.954968 69.7490802,138.609104 75.7358898,139.481286 L75.7744141,128.913086" id="Fill-9" fill="#363636"></path>
                <path d="M125.125,185.918 C132.01,185.918 137.977,180.563 137.977,172.913 C137.977,165.416 132.01,160.061 125.125,160.061 C118.087,160.061 112.12,165.416 112.12,172.913 C112.12,180.563 118.087,185.918 125.125,185.918 Z M185.909,146.291 C185.603,138.794 181.931,135.428 175.046,135.428 C167.243,135.428 163.112,138.794 160.205,141.395 L148.73,129.155 C154.85,123.188 161.735,118.445 177.035,118.445 C193.712,118.445 206.411,127.472 206.411,147.974 L206.411,185 L185.909,185 L186.368,175.973 C181.472,183.47 175.811,186.377 167.09,186.377 C155.156,186.377 144.14,181.022 144.14,165.875 C144.14,151.952 154.697,146.291 170.762,146.291 L185.909,146.291 Z M185.909,158.531 L171.833,158.531 C166.631,158.531 164.336,160.826 164.336,164.498 C164.336,168.17 167.396,170.312 173.21,170.312 C181.625,170.312 185.909,166.64 185.909,161.132 L185.909,158.531 Z M217.47,185 L238.125,185 L238.125,156.083 C238.125,142.16 243.174,137.876 252.507,137.876 C255.414,137.876 257.862,138.641 260.463,139.865 L267.042,121.046 C264.441,119.669 261.228,118.445 256.944,118.445 C250.212,118.445 242.562,120.893 237.819,131.603 L238.125,119.822 L217.47,119.822 L217.47,185 Z M303.805001,186.377 C316.810001,186.377 324.460001,181.787 330.886001,174.596 L316.963001,162.356 C313.903001,165.416 310.384001,168.476 303.805001,168.476 C294.472001,168.476 289.270001,161.744 289.270001,152.258 C289.270001,143.078 294.472001,136.499 303.805001,136.499 C309.007001,136.499 314.056001,139.406 316.504001,143.384 L331.192001,131.45 C324.613001,123.188 316.810001,118.445 303.805001,118.445 C283.456001,118.445 268.156001,132.521 268.156001,152.258 C268.156001,172.301 283.456001,186.377 303.805001,186.377 Z" id=".arc" fill="#FFFFFF"></path>
            </g>
        </g>
    </g>
</svg>